<svg width="280" height="380" viewBox="0 0 280 380" fill="none" xmlns="http://www.w3.org/2000/svg">
<g clip-path="url(#clip0_46_288)">
<rect width="280" height="380" rx="20" fill="#FFFDF7"/>
<path d="M44.4961 40.1602V42H35.9648V40.1602H44.4961ZM36.4102 24.9375V42H34.1484V24.9375H36.4102ZM54.2344 39.832V33.3047C54.2344 32.8047 54.1328 32.3711 53.9297 32.0039C53.7344 31.6289 53.4375 31.3398 53.0391 31.1367C52.6406 30.9336 52.1484 30.832 51.5625 30.832C51.0156 30.832 50.5352 30.9258 50.1211 31.1133C49.7148 31.3008 49.3945 31.5469 49.1602 31.8516C48.9336 32.1562 48.8203 32.4844 48.8203 32.8359H46.6523C46.6523 32.3828 46.7695 31.9336 47.0039 31.4883C47.2383 31.043 47.5742 30.6406 48.0117 30.2812C48.457 29.9141 48.9883 29.625 49.6055 29.4141C50.2305 29.1953 50.9258 29.0859 51.6914 29.0859C52.6133 29.0859 53.4258 29.2422 54.1289 29.5547C54.8398 29.8672 55.3945 30.3398 55.793 30.9727C56.1992 31.5977 56.4023 32.3828 56.4023 33.3281V39.2344C56.4023 39.6562 56.4375 40.1055 56.5078 40.582C56.5859 41.0586 56.6992 41.4688 56.8477 41.8125V42H54.5859C54.4766 41.75 54.3906 41.418 54.3281 41.0039C54.2656 40.582 54.2344 40.1914 54.2344 39.832ZM54.6094 34.3125L54.6328 35.8359H52.4414C51.8242 35.8359 51.2734 35.8867 50.7891 35.9883C50.3047 36.082 49.8984 36.2266 49.5703 36.4219C49.2422 36.6172 48.9922 36.8633 48.8203 37.1602C48.6484 37.4492 48.5625 37.7891 48.5625 38.1797C48.5625 38.5781 48.6523 38.9414 48.832 39.2695C49.0117 39.5977 49.2812 39.8594 49.6406 40.0547C50.0078 40.2422 50.457 40.3359 50.9883 40.3359C51.6523 40.3359 52.2383 40.1953 52.7461 39.9141C53.2539 39.6328 53.6562 39.2891 53.9531 38.8828C54.2578 38.4766 54.4219 38.082 54.4453 37.6992L55.3711 38.7422C55.3164 39.0703 55.168 39.4336 54.9258 39.832C54.6836 40.2305 54.3594 40.6133 53.9531 40.9805C53.5547 41.3398 53.0781 41.6406 52.5234 41.8828C51.9766 42.1172 51.3594 42.2344 50.6719 42.2344C49.8125 42.2344 49.0586 42.0664 48.4102 41.7305C47.7695 41.3945 47.2695 40.9453 46.9102 40.3828C46.5586 39.8125 46.3828 39.1758 46.3828 38.4727C46.3828 37.793 46.5156 37.1953 46.7812 36.6797C47.0469 36.1562 47.4297 35.7227 47.9297 35.3789C48.4297 35.0273 49.0312 34.7617 49.7344 34.582C50.4375 34.4023 51.2227 34.3125 52.0898 34.3125H54.6094ZM65.1211 29.3203V30.9844H58.2656V29.3203H65.1211ZM60.5859 26.2383H62.7539V38.8594C62.7539 39.2891 62.8203 39.6133 62.9531 39.832C63.0859 40.0508 63.2578 40.1953 63.4688 40.2656C63.6797 40.3359 63.9062 40.3711 64.1484 40.3711C64.3281 40.3711 64.5156 40.3555 64.7109 40.3242C64.9141 40.2852 65.0664 40.2539 65.168 40.2305L65.1797 42C65.0078 42.0547 64.7812 42.1055 64.5 42.1523C64.2266 42.207 63.8945 42.2344 63.5039 42.2344C62.9727 42.2344 62.4844 42.1289 62.0391 41.918C61.5938 41.707 61.2383 41.3555 60.9727 40.8633C60.7148 40.3633 60.5859 39.6914 60.5859 38.8477V26.2383ZM72.9258 42.2344C72.043 42.2344 71.2422 42.0859 70.5234 41.7891C69.8125 41.4844 69.1992 41.0586 68.6836 40.5117C68.1758 39.9648 67.7852 39.3164 67.5117 38.5664C67.2383 37.8164 67.1016 36.9961 67.1016 36.1055V35.6133C67.1016 34.582 67.2539 33.6641 67.5586 32.8594C67.8633 32.0469 68.2773 31.3594 68.8008 30.7969C69.3242 30.2344 69.918 29.8086 70.582 29.5195C71.2461 29.2305 71.9336 29.0859 72.6445 29.0859C73.5508 29.0859 74.332 29.2422 74.9883 29.5547C75.6523 29.8672 76.1953 30.3047 76.6172 30.8672C77.0391 31.4219 77.3516 32.0781 77.5547 32.8359C77.7578 33.5859 77.8594 34.4062 77.8594 35.2969V36.2695H68.3906V34.5H75.6914V34.3359C75.6602 33.7734 75.543 33.2266 75.3398 32.6953C75.1445 32.1641 74.832 31.7266 74.4023 31.3828C73.9727 31.0391 73.3867 30.8672 72.6445 30.8672C72.1523 30.8672 71.6992 30.9727 71.2852 31.1836C70.8711 31.3867 70.5156 31.6914 70.2188 32.0977C69.9219 32.5039 69.6914 33 69.5273 33.5859C69.3633 34.1719 69.2812 34.8477 69.2812 35.6133V36.1055C69.2812 36.707 69.3633 37.2734 69.5273 37.8047C69.6992 38.3281 69.9453 38.7891 70.2656 39.1875C70.5938 39.5859 70.9883 39.8984 71.4492 40.125C71.918 40.3516 72.4492 40.4648 73.043 40.4648C73.8086 40.4648 74.457 40.3086 74.9883 39.9961C75.5195 39.6836 75.9844 39.2656 76.3828 38.7422L77.6953 39.7852C77.4219 40.1992 77.0742 40.5938 76.6523 40.9688C76.2305 41.3438 75.7109 41.6484 75.0938 41.8828C74.4844 42.1172 73.7617 42.2344 72.9258 42.2344ZM73.2891 24L76.1953 27.1992V27.3164H74.3906L72.6328 25.3359L70.8867 27.3164H69.1055V27.1875L71.9766 24H73.2891ZM82.5586 32.0273V42H80.3906V29.3203H82.4414L82.5586 32.0273ZM82.043 35.1797L81.1406 35.1445C81.1484 34.2773 81.2773 33.4766 81.5273 32.7422C81.7773 32 82.1289 31.3555 82.582 30.8086C83.0352 30.2617 83.5742 29.8398 84.1992 29.543C84.832 29.2383 85.5312 29.0859 86.2969 29.0859C86.9219 29.0859 87.4844 29.1719 87.9844 29.3438C88.4844 29.5078 88.9102 29.7734 89.2617 30.1406C89.6211 30.5078 89.8945 30.9844 90.082 31.5703C90.2695 32.1484 90.3633 32.8555 90.3633 33.6914V42H88.1836V33.668C88.1836 33.0039 88.0859 32.4727 87.8906 32.0742C87.6953 31.668 87.4102 31.375 87.0352 31.1953C86.6602 31.0078 86.1992 30.9141 85.6523 30.9141C85.1133 30.9141 84.6211 31.0273 84.1758 31.2539C83.7383 31.4805 83.3594 31.793 83.0391 32.1914C82.7266 32.5898 82.4805 33.0469 82.3008 33.5625C82.1289 34.0703 82.043 34.6094 82.043 35.1797ZM98.7305 40.4531C99.2461 40.4531 99.7227 40.3477 100.16 40.1367C100.598 39.9258 100.957 39.6367 101.238 39.2695C101.52 38.8945 101.68 38.4688 101.719 37.9922H103.781C103.742 38.7422 103.488 39.4414 103.02 40.0898C102.559 40.7305 101.953 41.25 101.203 41.6484C100.453 42.0391 99.6289 42.2344 98.7305 42.2344C97.7773 42.2344 96.9453 42.0664 96.2344 41.7305C95.5312 41.3945 94.9453 40.9336 94.4766 40.3477C94.0156 39.7617 93.668 39.0898 93.4336 38.332C93.207 37.5664 93.0938 36.7578 93.0938 35.9062V35.4141C93.0938 34.5625 93.207 33.7578 93.4336 33C93.668 32.2344 94.0156 31.5586 94.4766 30.9727C94.9453 30.3867 95.5312 29.9258 96.2344 29.5898C96.9453 29.2539 97.7773 29.0859 98.7305 29.0859C99.7227 29.0859 100.59 29.2891 101.332 29.6953C102.074 30.0938 102.656 30.6406 103.078 31.3359C103.508 32.0234 103.742 32.8047 103.781 33.6797H101.719C101.68 33.1562 101.531 32.6836 101.273 32.2617C101.023 31.8398 100.68 31.5039 100.242 31.2539C99.8125 30.9961 99.3086 30.8672 98.7305 30.8672C98.0664 30.8672 97.5078 31 97.0547 31.2656C96.6094 31.5234 96.2539 31.875 95.9883 32.3203C95.7305 32.7578 95.543 33.2461 95.4258 33.7852C95.3164 34.3164 95.2617 34.8594 95.2617 35.4141V35.9062C95.2617 36.4609 95.3164 37.0078 95.4258 37.5469C95.5352 38.0859 95.7188 38.5742 95.9766 39.0117C96.2422 39.4492 96.5977 39.8008 97.043 40.0664C97.4961 40.3242 98.0586 40.4531 98.7305 40.4531ZM108.574 29.3203V42H106.395V29.3203H108.574ZM106.23 25.957C106.23 25.6055 106.336 25.3086 106.547 25.0664C106.766 24.8242 107.086 24.7031 107.508 24.7031C107.922 24.7031 108.238 24.8242 108.457 25.0664C108.684 25.3086 108.797 25.6055 108.797 25.957C108.797 26.293 108.684 26.582 108.457 26.8242C108.238 27.0586 107.922 27.1758 107.508 27.1758C107.086 27.1758 106.766 27.0586 106.547 26.8242C106.336 26.582 106.23 26.293 106.23 25.957ZM119.531 39.832V33.3047C119.531 32.8047 119.43 32.3711 119.227 32.0039C119.031 31.6289 118.734 31.3398 118.336 31.1367C117.938 30.9336 117.445 30.832 116.859 30.832C116.312 30.832 115.832 30.9258 115.418 31.1133C115.012 31.3008 114.691 31.5469 114.457 31.8516C114.23 32.1562 114.117 32.4844 114.117 32.8359H111.949C111.949 32.3828 112.066 31.9336 112.301 31.4883C112.535 31.043 112.871 30.6406 113.309 30.2812C113.754 29.9141 114.285 29.625 114.902 29.4141C115.527 29.1953 116.223 29.0859 116.988 29.0859C117.91 29.0859 118.723 29.2422 119.426 29.5547C120.137 29.8672 120.691 30.3398 121.09 30.9727C121.496 31.5977 121.699 32.3828 121.699 33.3281V39.2344C121.699 39.6562 121.734 40.1055 121.805 40.582C121.883 41.0586 121.996 41.4688 122.145 41.8125V42H119.883C119.773 41.75 119.688 41.418 119.625 41.0039C119.562 40.582 119.531 40.1914 119.531 39.832ZM119.906 34.3125L119.93 35.8359H117.738C117.121 35.8359 116.57 35.8867 116.086 35.9883C115.602 36.082 115.195 36.2266 114.867 36.4219C114.539 36.6172 114.289 36.8633 114.117 37.1602C113.945 37.4492 113.859 37.7891 113.859 38.1797C113.859 38.5781 113.949 38.9414 114.129 39.2695C114.309 39.5977 114.578 39.8594 114.938 40.0547C115.305 40.2422 115.754 40.3359 116.285 40.3359C116.949 40.3359 117.535 40.1953 118.043 39.9141C118.551 39.6328 118.953 39.2891 119.25 38.8828C119.555 38.4766 119.719 38.082 119.742 37.6992L120.668 38.7422C120.613 39.0703 120.465 39.4336 120.223 39.832C119.98 40.2305 119.656 40.6133 119.25 40.9805C118.852 41.3398 118.375 41.6406 117.82 41.8828C117.273 42.1172 116.656 42.2344 115.969 42.2344C115.109 42.2344 114.355 42.0664 113.707 41.7305C113.066 41.3945 112.566 40.9453 112.207 40.3828C111.855 39.8125 111.68 39.1758 111.68 38.4727C111.68 37.793 111.812 37.1953 112.078 36.6797C112.344 36.1562 112.727 35.7227 113.227 35.3789C113.727 35.0273 114.328 34.7617 115.031 34.582C115.734 34.4023 116.52 34.3125 117.387 34.3125H119.906ZM139.055 39.5391V24H141.234V42H139.242L139.055 39.5391ZM130.523 35.8008V35.5547C130.523 34.5859 130.641 33.707 130.875 32.918C131.117 32.1211 131.457 31.4375 131.895 30.8672C132.34 30.2969 132.867 29.8594 133.477 29.5547C134.094 29.2422 134.781 29.0859 135.539 29.0859C136.336 29.0859 137.031 29.2266 137.625 29.5078C138.227 29.7812 138.734 30.1836 139.148 30.7148C139.57 31.2383 139.902 31.8711 140.145 32.6133C140.387 33.3555 140.555 34.1953 140.648 35.1328V36.2109C140.562 37.1406 140.395 37.9766 140.145 38.7188C139.902 39.4609 139.57 40.0938 139.148 40.6172C138.734 41.1406 138.227 41.543 137.625 41.8242C137.023 42.0977 136.32 42.2344 135.516 42.2344C134.773 42.2344 134.094 42.0742 133.477 41.7539C132.867 41.4336 132.34 40.9844 131.895 40.4062C131.457 39.8281 131.117 39.1484 130.875 38.3672C130.641 37.5781 130.523 36.7227 130.523 35.8008ZM132.703 35.5547V35.8008C132.703 36.4336 132.766 37.0273 132.891 37.582C133.023 38.1367 133.227 38.625 133.5 39.0469C133.773 39.4688 134.121 39.8008 134.543 40.043C134.965 40.2773 135.469 40.3945 136.055 40.3945C136.773 40.3945 137.363 40.2422 137.824 39.9375C138.293 39.6328 138.668 39.2305 138.949 38.7305C139.23 38.2305 139.449 37.6875 139.605 37.1016V34.2773C139.512 33.8477 139.375 33.4336 139.195 33.0352C139.023 32.6289 138.797 32.2695 138.516 31.957C138.242 31.6367 137.902 31.3828 137.496 31.1953C137.098 31.0078 136.625 30.9141 136.078 30.9141C135.484 30.9141 134.973 31.0391 134.543 31.2891C134.121 31.5312 133.773 31.8672 133.5 32.2969C133.227 32.7188 133.023 33.2109 132.891 33.7734C132.766 34.3281 132.703 34.9219 132.703 35.5547ZM152.086 39.832V33.3047C152.086 32.8047 151.984 32.3711 151.781 32.0039C151.586 31.6289 151.289 31.3398 150.891 31.1367C150.492 30.9336 150 30.832 149.414 30.832C148.867 30.832 148.387 30.9258 147.973 31.1133C147.566 31.3008 147.246 31.5469 147.012 31.8516C146.785 32.1562 146.672 32.4844 146.672 32.8359H144.504C144.504 32.3828 144.621 31.9336 144.855 31.4883C145.09 31.043 145.426 30.6406 145.863 30.2812C146.309 29.9141 146.84 29.625 147.457 29.4141C148.082 29.1953 148.777 29.0859 149.543 29.0859C150.465 29.0859 151.277 29.2422 151.98 29.5547C152.691 29.8672 153.246 30.3398 153.645 30.9727C154.051 31.5977 154.254 32.3828 154.254 33.3281V39.2344C154.254 39.6562 154.289 40.1055 154.359 40.582C154.438 41.0586 154.551 41.4688 154.699 41.8125V42H152.438C152.328 41.75 152.242 41.418 152.18 41.0039C152.117 40.582 152.086 40.1914 152.086 39.832ZM152.461 34.3125L152.484 35.8359H150.293C149.676 35.8359 149.125 35.8867 148.641 35.9883C148.156 36.082 147.75 36.2266 147.422 36.4219C147.094 36.6172 146.844 36.8633 146.672 37.1602C146.5 37.4492 146.414 37.7891 146.414 38.1797C146.414 38.5781 146.504 38.9414 146.684 39.2695C146.863 39.5977 147.133 39.8594 147.492 40.0547C147.859 40.2422 148.309 40.3359 148.84 40.3359C149.504 40.3359 150.09 40.1953 150.598 39.9141C151.105 39.6328 151.508 39.2891 151.805 38.8828C152.109 38.4766 152.273 38.082 152.297 37.6992L153.223 38.7422C153.168 39.0703 153.02 39.4336 152.777 39.832C152.535 40.2305 152.211 40.6133 151.805 40.9805C151.406 41.3398 150.93 41.6406 150.375 41.8828C149.828 42.1172 149.211 42.2344 148.523 42.2344C147.664 42.2344 146.91 42.0664 146.262 41.7305C145.621 41.3945 145.121 40.9453 144.762 40.3828C144.41 39.8125 144.234 39.1758 144.234 38.4727C144.234 37.793 144.367 37.1953 144.633 36.6797C144.898 36.1562 145.281 35.7227 145.781 35.3789C146.281 35.0273 146.883 34.7617 147.586 34.582C148.289 34.4023 149.074 34.3125 149.941 34.3125H152.461ZM165.047 38.6367C165.047 38.3242 164.977 38.0352 164.836 37.7695C164.703 37.4961 164.426 37.25 164.004 37.0312C163.59 36.8047 162.965 36.6094 162.129 36.4453C161.426 36.2969 160.789 36.1211 160.219 35.918C159.656 35.7148 159.176 35.4688 158.777 35.1797C158.387 34.8906 158.086 34.5508 157.875 34.1602C157.664 33.7695 157.559 33.3125 157.559 32.7891C157.559 32.2891 157.668 31.8164 157.887 31.3711C158.113 30.9258 158.43 30.5312 158.836 30.1875C159.25 29.8438 159.746 29.5742 160.324 29.3789C160.902 29.1836 161.547 29.0859 162.258 29.0859C163.273 29.0859 164.141 29.2656 164.859 29.625C165.578 29.9844 166.129 30.4648 166.512 31.0664C166.895 31.6602 167.086 32.3203 167.086 33.0469H164.918C164.918 32.6953 164.812 32.3555 164.602 32.0273C164.398 31.6914 164.098 31.4141 163.699 31.1953C163.309 30.9766 162.828 30.8672 162.258 30.8672C161.656 30.8672 161.168 30.9609 160.793 31.1484C160.426 31.3281 160.156 31.5586 159.984 31.8398C159.82 32.1211 159.738 32.418 159.738 32.7305C159.738 32.9648 159.777 33.1758 159.855 33.3633C159.941 33.543 160.09 33.7109 160.301 33.8672C160.512 34.0156 160.809 34.1562 161.191 34.2891C161.574 34.4219 162.062 34.5547 162.656 34.6875C163.695 34.9219 164.551 35.2031 165.223 35.5312C165.895 35.8594 166.395 36.2617 166.723 36.7383C167.051 37.2148 167.215 37.793 167.215 38.4727C167.215 39.0273 167.098 39.5352 166.863 39.9961C166.637 40.457 166.305 40.8555 165.867 41.1914C165.438 41.5195 164.922 41.7773 164.32 41.9648C163.727 42.1445 163.059 42.2344 162.316 42.2344C161.199 42.2344 160.254 42.0352 159.48 41.6367C158.707 41.2383 158.121 40.7227 157.723 40.0898C157.324 39.457 157.125 38.7891 157.125 38.0859H159.305C159.336 38.6797 159.508 39.1523 159.82 39.5039C160.133 39.8477 160.516 40.0938 160.969 40.2422C161.422 40.3828 161.871 40.4531 162.316 40.4531C162.91 40.4531 163.406 40.375 163.805 40.2188C164.211 40.0625 164.52 39.8477 164.73 39.5742C164.941 39.3008 165.047 38.9883 165.047 38.6367ZM180.832 36.8438L184.219 24.9375H185.859L184.91 29.5664L181.266 42H179.637L180.832 36.8438ZM177.328 24.9375L180.023 36.6094L180.832 42H179.215L175.078 24.9375H177.328ZM190.242 36.5977L192.879 24.9375H195.141L191.016 42H189.398L190.242 36.5977ZM186.105 24.9375L189.398 36.8438L190.594 42H188.965L185.449 29.5664L184.488 24.9375H186.105ZM203.449 26.4492L197.801 42H195.492L201.996 24.9375H203.484L203.449 26.4492ZM208.184 42L202.523 26.4492L202.488 24.9375H203.977L210.504 42H208.184ZM207.891 35.6836V37.5352H198.305V35.6836H207.891ZM225.914 24.9375V42H223.641L215.051 28.8398V42H212.789V24.9375H215.051L223.676 38.1328V24.9375H225.914ZM231.785 24V25.5C231.785 25.9688 231.703 26.4648 231.539 26.9883C231.383 27.5039 231.152 28.0039 230.848 28.4883C230.543 28.9648 230.176 29.3828 229.746 29.7422L228.504 28.8867C228.871 28.3711 229.148 27.8438 229.336 27.3047C229.531 26.7578 229.629 26.168 229.629 25.5352V24H231.785ZM240.469 38.6367C240.469 38.3242 240.398 38.0352 240.258 37.7695C240.125 37.4961 239.848 37.25 239.426 37.0312C239.012 36.8047 238.387 36.6094 237.551 36.4453C236.848 36.2969 236.211 36.1211 235.641 35.918C235.078 35.7148 234.598 35.4688 234.199 35.1797C233.809 34.8906 233.508 34.5508 233.297 34.1602C233.086 33.7695 232.98 33.3125 232.98 32.7891C232.98 32.2891 233.09 31.8164 233.309 31.3711C233.535 30.9258 233.852 30.5312 234.258 30.1875C234.672 29.8438 235.168 29.5742 235.746 29.3789C236.324 29.1836 236.969 29.0859 237.68 29.0859C238.695 29.0859 239.562 29.2656 240.281 29.625C241 29.9844 241.551 30.4648 241.934 31.0664C242.316 31.6602 242.508 32.3203 242.508 33.0469H240.34C240.34 32.6953 240.234 32.3555 240.023 32.0273C239.82 31.6914 239.52 31.4141 239.121 31.1953C238.73 30.9766 238.25 30.8672 237.68 30.8672C237.078 30.8672 236.59 30.9609 236.215 31.1484C235.848 31.3281 235.578 31.5586 235.406 31.8398C235.242 32.1211 235.16 32.418 235.16 32.7305C235.16 32.9648 235.199 33.1758 235.277 33.3633C235.363 33.543 235.512 33.7109 235.723 33.8672C235.934 34.0156 236.23 34.1562 236.613 34.2891C236.996 34.4219 237.484 34.5547 238.078 34.6875C239.117 34.9219 239.973 35.2031 240.645 35.5312C241.316 35.8594 241.816 36.2617 242.145 36.7383C242.473 37.2148 242.637 37.793 242.637 38.4727C242.637 39.0273 242.52 39.5352 242.285 39.9961C242.059 40.457 241.727 40.8555 241.289 41.1914C240.859 41.5195 240.344 41.7773 239.742 41.9648C239.148 42.1445 238.48 42.2344 237.738 42.2344C236.621 42.2344 235.676 42.0352 234.902 41.6367C234.129 41.2383 233.543 40.7227 233.145 40.0898C232.746 39.457 232.547 38.7891 232.547 38.0859H234.727C234.758 38.6797 234.93 39.1523 235.242 39.5039C235.555 39.8477 235.938 40.0938 236.391 40.2422C236.844 40.3828 237.293 40.4531 237.738 40.4531C238.332 40.4531 238.828 40.375 239.227 40.2188C239.633 40.0625 239.941 39.8477 240.152 39.5742C240.363 39.3008 240.469 38.9883 240.469 38.6367Z" fill="black"/>
<rect x="32" y="305" width="70" height="40" rx="15" fill="#E94343"/>
<rect x="32" y="161" width="70" height="40" rx="15" fill="#EDBA42"/>
<rect x="32" y="233" width="70" height="40" rx="15" fill="#FF7B00"/>
<rect x="32" y="89" width="70" height="40" rx="15" fill="#14B06F"/>
<path d="M158.812 326.693V328.029H149.566V327.071L155.297 318.203H156.624L155.2 320.77L151.412 326.693H158.812ZM157.028 318.203V331H155.402V318.203H157.028ZM168.322 323.582V325.533C168.322 326.582 168.229 327.467 168.041 328.188C167.854 328.908 167.584 329.488 167.232 329.928C166.881 330.367 166.456 330.687 165.958 330.886C165.466 331.079 164.909 331.176 164.288 331.176C163.796 331.176 163.342 331.114 162.926 330.991C162.51 330.868 162.135 330.672 161.801 330.402C161.473 330.127 161.191 329.77 160.957 329.33C160.723 328.891 160.544 328.357 160.421 327.73C160.298 327.104 160.236 326.371 160.236 325.533V323.582C160.236 322.533 160.33 321.654 160.518 320.945C160.711 320.236 160.983 319.668 161.335 319.24C161.687 318.807 162.108 318.496 162.601 318.309C163.099 318.121 163.655 318.027 164.271 318.027C164.769 318.027 165.226 318.089 165.642 318.212C166.063 318.329 166.438 318.52 166.767 318.783C167.095 319.041 167.373 319.387 167.602 319.82C167.836 320.248 168.015 320.772 168.138 321.394C168.261 322.015 168.322 322.744 168.322 323.582ZM166.688 325.797V323.31C166.688 322.735 166.652 322.231 166.582 321.798C166.518 321.358 166.421 320.983 166.292 320.673C166.163 320.362 165.999 320.11 165.8 319.917C165.606 319.724 165.381 319.583 165.123 319.495C164.871 319.401 164.587 319.354 164.271 319.354C163.884 319.354 163.541 319.428 163.242 319.574C162.943 319.715 162.691 319.94 162.486 320.251C162.287 320.562 162.135 320.969 162.029 321.473C161.924 321.977 161.871 322.589 161.871 323.31V325.797C161.871 326.371 161.903 326.878 161.968 327.317C162.038 327.757 162.141 328.138 162.275 328.46C162.41 328.776 162.574 329.037 162.768 329.242C162.961 329.447 163.184 329.6 163.436 329.699C163.693 329.793 163.978 329.84 164.288 329.84C164.687 329.84 165.035 329.764 165.334 329.611C165.633 329.459 165.882 329.222 166.081 328.899C166.286 328.571 166.438 328.152 166.538 327.643C166.638 327.127 166.688 326.512 166.688 325.797ZM176.672 323.38V331H175.037V321.49H176.584L176.672 323.38ZM176.338 325.885L175.582 325.858C175.588 325.208 175.673 324.607 175.837 324.057C176.001 323.5 176.244 323.017 176.566 322.606C176.889 322.196 177.29 321.88 177.771 321.657C178.251 321.429 178.808 321.314 179.44 321.314C179.886 321.314 180.296 321.379 180.671 321.508C181.046 321.631 181.371 321.827 181.646 322.097C181.922 322.366 182.136 322.712 182.288 323.134C182.44 323.556 182.517 324.065 182.517 324.663V331H180.891V324.742C180.891 324.244 180.806 323.846 180.636 323.547C180.472 323.248 180.237 323.031 179.933 322.896C179.628 322.756 179.271 322.686 178.86 322.686C178.38 322.686 177.979 322.771 177.656 322.94C177.334 323.11 177.076 323.345 176.883 323.644C176.689 323.942 176.549 324.285 176.461 324.672C176.379 325.053 176.338 325.457 176.338 325.885ZM182.499 324.988L181.409 325.322C181.415 324.801 181.5 324.3 181.664 323.819C181.834 323.339 182.077 322.911 182.394 322.536C182.716 322.161 183.111 321.865 183.58 321.648C184.049 321.426 184.585 321.314 185.188 321.314C185.698 321.314 186.149 321.382 186.542 321.517C186.94 321.651 187.274 321.859 187.544 322.141C187.819 322.416 188.027 322.771 188.168 323.204C188.309 323.638 188.379 324.153 188.379 324.751V331H186.744V324.733C186.744 324.2 186.659 323.787 186.489 323.494C186.325 323.195 186.091 322.987 185.786 322.87C185.487 322.747 185.13 322.686 184.714 322.686C184.356 322.686 184.04 322.747 183.765 322.87C183.489 322.993 183.258 323.163 183.07 323.38C182.883 323.591 182.739 323.834 182.64 324.109C182.546 324.385 182.499 324.678 182.499 324.988ZM196.377 328.478C196.377 328.243 196.324 328.026 196.219 327.827C196.119 327.622 195.911 327.438 195.595 327.273C195.284 327.104 194.815 326.957 194.188 326.834C193.661 326.723 193.184 326.591 192.756 326.438C192.334 326.286 191.974 326.102 191.675 325.885C191.382 325.668 191.156 325.413 190.998 325.12C190.84 324.827 190.761 324.484 190.761 324.092C190.761 323.717 190.843 323.362 191.007 323.028C191.177 322.694 191.414 322.398 191.719 322.141C192.029 321.883 192.401 321.681 192.835 321.534C193.269 321.388 193.752 321.314 194.285 321.314C195.047 321.314 195.697 321.449 196.236 321.719C196.775 321.988 197.188 322.349 197.476 322.8C197.763 323.245 197.906 323.74 197.906 324.285H196.28C196.28 324.021 196.201 323.767 196.043 323.521C195.891 323.269 195.665 323.061 195.366 322.896C195.073 322.732 194.713 322.65 194.285 322.65C193.834 322.65 193.468 322.721 193.187 322.861C192.911 322.996 192.709 323.169 192.58 323.38C192.457 323.591 192.396 323.813 192.396 324.048C192.396 324.224 192.425 324.382 192.483 324.522C192.548 324.657 192.659 324.783 192.817 324.9C192.976 325.012 193.198 325.117 193.485 325.217C193.772 325.316 194.139 325.416 194.584 325.516C195.363 325.691 196.005 325.902 196.509 326.148C197.013 326.395 197.388 326.696 197.634 327.054C197.88 327.411 198.003 327.845 198.003 328.354C198.003 328.771 197.915 329.151 197.739 329.497C197.569 329.843 197.32 330.142 196.992 330.394C196.67 330.64 196.283 330.833 195.832 330.974C195.387 331.108 194.886 331.176 194.329 331.176C193.491 331.176 192.782 331.026 192.202 330.728C191.622 330.429 191.183 330.042 190.884 329.567C190.585 329.093 190.436 328.592 190.436 328.064H192.07C192.094 328.51 192.223 328.864 192.457 329.128C192.691 329.386 192.979 329.57 193.318 329.682C193.658 329.787 193.995 329.84 194.329 329.84C194.774 329.84 195.146 329.781 195.445 329.664C195.75 329.547 195.981 329.386 196.14 329.181C196.298 328.976 196.377 328.741 196.377 328.478Z" fill="black"/>
<path d="M152.537 251.802H153.697C154.266 251.802 154.734 251.708 155.104 251.521C155.479 251.327 155.757 251.066 155.938 250.738C156.126 250.404 156.22 250.029 156.22 249.613C156.22 249.121 156.138 248.708 155.974 248.374C155.81 248.04 155.563 247.788 155.235 247.618C154.907 247.448 154.491 247.363 153.987 247.363C153.53 247.363 153.126 247.454 152.774 247.636C152.429 247.812 152.156 248.063 151.957 248.392C151.764 248.72 151.667 249.106 151.667 249.552H150.041C150.041 248.901 150.205 248.31 150.533 247.776C150.861 247.243 151.321 246.818 151.913 246.502C152.511 246.186 153.202 246.027 153.987 246.027C154.761 246.027 155.438 246.165 156.018 246.44C156.598 246.71 157.049 247.114 157.371 247.653C157.693 248.187 157.854 248.852 157.854 249.648C157.854 249.971 157.778 250.316 157.626 250.686C157.479 251.049 157.248 251.389 156.932 251.705C156.621 252.021 156.217 252.282 155.719 252.487C155.221 252.687 154.623 252.786 153.926 252.786H152.537V251.802ZM152.537 253.138V252.162H153.926C154.74 252.162 155.414 252.259 155.947 252.452C156.48 252.646 156.899 252.903 157.204 253.226C157.515 253.548 157.731 253.902 157.854 254.289C157.983 254.67 158.048 255.051 158.048 255.432C158.048 256.029 157.945 256.56 157.74 257.022C157.541 257.485 157.257 257.878 156.888 258.2C156.524 258.522 156.097 258.766 155.604 258.93C155.112 259.094 154.576 259.176 153.996 259.176C153.439 259.176 152.915 259.097 152.423 258.938C151.937 258.78 151.506 258.552 151.131 258.253C150.756 257.948 150.463 257.576 150.252 257.137C150.041 256.691 149.936 256.185 149.936 255.616H151.562C151.562 256.062 151.658 256.451 151.852 256.785C152.051 257.119 152.332 257.38 152.695 257.567C153.064 257.749 153.498 257.84 153.996 257.84C154.494 257.84 154.922 257.755 155.279 257.585C155.643 257.409 155.921 257.146 156.114 256.794C156.313 256.442 156.413 256 156.413 255.467C156.413 254.934 156.302 254.497 156.079 254.157C155.856 253.812 155.54 253.557 155.13 253.393C154.726 253.223 154.248 253.138 153.697 253.138H152.537ZM168.322 251.582V253.533C168.322 254.582 168.229 255.467 168.041 256.188C167.854 256.908 167.584 257.488 167.232 257.928C166.881 258.367 166.456 258.687 165.958 258.886C165.466 259.079 164.909 259.176 164.288 259.176C163.796 259.176 163.342 259.114 162.926 258.991C162.51 258.868 162.135 258.672 161.801 258.402C161.473 258.127 161.191 257.77 160.957 257.33C160.723 256.891 160.544 256.357 160.421 255.73C160.298 255.104 160.236 254.371 160.236 253.533V251.582C160.236 250.533 160.33 249.654 160.518 248.945C160.711 248.236 160.983 247.668 161.335 247.24C161.687 246.807 162.108 246.496 162.601 246.309C163.099 246.121 163.655 246.027 164.271 246.027C164.769 246.027 165.226 246.089 165.642 246.212C166.063 246.329 166.438 246.52 166.767 246.783C167.095 247.041 167.373 247.387 167.602 247.82C167.836 248.248 168.015 248.772 168.138 249.394C168.261 250.015 168.322 250.744 168.322 251.582ZM166.688 253.797V251.31C166.688 250.735 166.652 250.231 166.582 249.798C166.518 249.358 166.421 248.983 166.292 248.673C166.163 248.362 165.999 248.11 165.8 247.917C165.606 247.724 165.381 247.583 165.123 247.495C164.871 247.401 164.587 247.354 164.271 247.354C163.884 247.354 163.541 247.428 163.242 247.574C162.943 247.715 162.691 247.94 162.486 248.251C162.287 248.562 162.135 248.969 162.029 249.473C161.924 249.977 161.871 250.589 161.871 251.31V253.797C161.871 254.371 161.903 254.878 161.968 255.317C162.038 255.757 162.141 256.138 162.275 256.46C162.41 256.776 162.574 257.037 162.768 257.242C162.961 257.447 163.184 257.6 163.436 257.699C163.693 257.793 163.978 257.84 164.288 257.84C164.687 257.84 165.035 257.764 165.334 257.611C165.633 257.459 165.882 257.222 166.081 256.899C166.286 256.571 166.438 256.152 166.538 255.643C166.638 255.127 166.688 254.512 166.688 253.797ZM176.672 251.38V259H175.037V249.49H176.584L176.672 251.38ZM176.338 253.885L175.582 253.858C175.588 253.208 175.673 252.607 175.837 252.057C176.001 251.5 176.244 251.017 176.566 250.606C176.889 250.196 177.29 249.88 177.771 249.657C178.251 249.429 178.808 249.314 179.44 249.314C179.886 249.314 180.296 249.379 180.671 249.508C181.046 249.631 181.371 249.827 181.646 250.097C181.922 250.366 182.136 250.712 182.288 251.134C182.44 251.556 182.517 252.065 182.517 252.663V259H180.891V252.742C180.891 252.244 180.806 251.846 180.636 251.547C180.472 251.248 180.237 251.031 179.933 250.896C179.628 250.756 179.271 250.686 178.86 250.686C178.38 250.686 177.979 250.771 177.656 250.94C177.334 251.11 177.076 251.345 176.883 251.644C176.689 251.942 176.549 252.285 176.461 252.672C176.379 253.053 176.338 253.457 176.338 253.885ZM182.499 252.988L181.409 253.322C181.415 252.801 181.5 252.3 181.664 251.819C181.834 251.339 182.077 250.911 182.394 250.536C182.716 250.161 183.111 249.865 183.58 249.648C184.049 249.426 184.585 249.314 185.188 249.314C185.698 249.314 186.149 249.382 186.542 249.517C186.94 249.651 187.274 249.859 187.544 250.141C187.819 250.416 188.027 250.771 188.168 251.204C188.309 251.638 188.379 252.153 188.379 252.751V259H186.744V252.733C186.744 252.2 186.659 251.787 186.489 251.494C186.325 251.195 186.091 250.987 185.786 250.87C185.487 250.747 185.13 250.686 184.714 250.686C184.356 250.686 184.04 250.747 183.765 250.87C183.489 250.993 183.258 251.163 183.07 251.38C182.883 251.591 182.739 251.834 182.64 252.109C182.546 252.385 182.499 252.678 182.499 252.988ZM196.377 256.478C196.377 256.243 196.324 256.026 196.219 255.827C196.119 255.622 195.911 255.438 195.595 255.273C195.284 255.104 194.815 254.957 194.188 254.834C193.661 254.723 193.184 254.591 192.756 254.438C192.334 254.286 191.974 254.102 191.675 253.885C191.382 253.668 191.156 253.413 190.998 253.12C190.84 252.827 190.761 252.484 190.761 252.092C190.761 251.717 190.843 251.362 191.007 251.028C191.177 250.694 191.414 250.398 191.719 250.141C192.029 249.883 192.401 249.681 192.835 249.534C193.269 249.388 193.752 249.314 194.285 249.314C195.047 249.314 195.697 249.449 196.236 249.719C196.775 249.988 197.188 250.349 197.476 250.8C197.763 251.245 197.906 251.74 197.906 252.285H196.28C196.28 252.021 196.201 251.767 196.043 251.521C195.891 251.269 195.665 251.061 195.366 250.896C195.073 250.732 194.713 250.65 194.285 250.65C193.834 250.65 193.468 250.721 193.187 250.861C192.911 250.996 192.709 251.169 192.58 251.38C192.457 251.591 192.396 251.813 192.396 252.048C192.396 252.224 192.425 252.382 192.483 252.522C192.548 252.657 192.659 252.783 192.817 252.9C192.976 253.012 193.198 253.117 193.485 253.217C193.772 253.316 194.139 253.416 194.584 253.516C195.363 253.691 196.005 253.902 196.509 254.148C197.013 254.395 197.388 254.696 197.634 255.054C197.88 255.411 198.003 255.845 198.003 256.354C198.003 256.771 197.915 257.151 197.739 257.497C197.569 257.843 197.32 258.142 196.992 258.394C196.67 258.64 196.283 258.833 195.832 258.974C195.387 259.108 194.886 259.176 194.329 259.176C193.491 259.176 192.782 259.026 192.202 258.728C191.622 258.429 191.183 258.042 190.884 257.567C190.585 257.093 190.436 256.592 190.436 256.064H192.07C192.094 256.51 192.223 256.864 192.457 257.128C192.691 257.386 192.979 257.57 193.318 257.682C193.658 257.787 193.995 257.84 194.329 257.84C194.774 257.84 195.146 257.781 195.445 257.664C195.75 257.547 195.981 257.386 196.14 257.181C196.298 256.976 196.377 256.741 196.377 256.478Z" fill="black"/>
<path d="M158.549 185.664V187H150.173V185.831L154.365 181.164C154.881 180.59 155.279 180.104 155.561 179.705C155.848 179.301 156.047 178.94 156.158 178.624C156.275 178.302 156.334 177.974 156.334 177.64C156.334 177.218 156.246 176.837 156.07 176.497C155.9 176.151 155.648 175.876 155.314 175.671C154.98 175.466 154.576 175.363 154.102 175.363C153.533 175.363 153.059 175.475 152.678 175.697C152.303 175.914 152.021 176.219 151.834 176.611C151.646 177.004 151.553 177.455 151.553 177.965H149.927C149.927 177.244 150.085 176.585 150.401 175.987C150.718 175.39 151.187 174.915 151.808 174.563C152.429 174.206 153.193 174.027 154.102 174.027C154.91 174.027 155.602 174.171 156.176 174.458C156.75 174.739 157.189 175.138 157.494 175.653C157.805 176.163 157.96 176.761 157.96 177.446C157.96 177.821 157.896 178.202 157.767 178.589C157.644 178.97 157.471 179.351 157.248 179.731C157.031 180.112 156.776 180.487 156.483 180.856C156.196 181.226 155.889 181.589 155.561 181.946L152.133 185.664H158.549ZM168.322 179.582V181.533C168.322 182.582 168.229 183.467 168.041 184.188C167.854 184.908 167.584 185.488 167.232 185.928C166.881 186.367 166.456 186.687 165.958 186.886C165.466 187.079 164.909 187.176 164.288 187.176C163.796 187.176 163.342 187.114 162.926 186.991C162.51 186.868 162.135 186.672 161.801 186.402C161.473 186.127 161.191 185.77 160.957 185.33C160.723 184.891 160.544 184.357 160.421 183.73C160.298 183.104 160.236 182.371 160.236 181.533V179.582C160.236 178.533 160.33 177.654 160.518 176.945C160.711 176.236 160.983 175.668 161.335 175.24C161.687 174.807 162.108 174.496 162.601 174.309C163.099 174.121 163.655 174.027 164.271 174.027C164.769 174.027 165.226 174.089 165.642 174.212C166.063 174.329 166.438 174.52 166.767 174.783C167.095 175.041 167.373 175.387 167.602 175.82C167.836 176.248 168.015 176.772 168.138 177.394C168.261 178.015 168.322 178.744 168.322 179.582ZM166.688 181.797V179.31C166.688 178.735 166.652 178.231 166.582 177.798C166.518 177.358 166.421 176.983 166.292 176.673C166.163 176.362 165.999 176.11 165.8 175.917C165.606 175.724 165.381 175.583 165.123 175.495C164.871 175.401 164.587 175.354 164.271 175.354C163.884 175.354 163.541 175.428 163.242 175.574C162.943 175.715 162.691 175.94 162.486 176.251C162.287 176.562 162.135 176.969 162.029 177.473C161.924 177.977 161.871 178.589 161.871 179.31V181.797C161.871 182.371 161.903 182.878 161.968 183.317C162.038 183.757 162.141 184.138 162.275 184.46C162.41 184.776 162.574 185.037 162.768 185.242C162.961 185.447 163.184 185.6 163.436 185.699C163.693 185.793 163.978 185.84 164.288 185.84C164.687 185.84 165.035 185.764 165.334 185.611C165.633 185.459 165.882 185.222 166.081 184.899C166.286 184.571 166.438 184.152 166.538 183.643C166.638 183.127 166.688 182.512 166.688 181.797ZM176.672 179.38V187H175.037V177.49H176.584L176.672 179.38ZM176.338 181.885L175.582 181.858C175.588 181.208 175.673 180.607 175.837 180.057C176.001 179.5 176.244 179.017 176.566 178.606C176.889 178.196 177.29 177.88 177.771 177.657C178.251 177.429 178.808 177.314 179.44 177.314C179.886 177.314 180.296 177.379 180.671 177.508C181.046 177.631 181.371 177.827 181.646 178.097C181.922 178.366 182.136 178.712 182.288 179.134C182.44 179.556 182.517 180.065 182.517 180.663V187H180.891V180.742C180.891 180.244 180.806 179.846 180.636 179.547C180.472 179.248 180.237 179.031 179.933 178.896C179.628 178.756 179.271 178.686 178.86 178.686C178.38 178.686 177.979 178.771 177.656 178.94C177.334 179.11 177.076 179.345 176.883 179.644C176.689 179.942 176.549 180.285 176.461 180.672C176.379 181.053 176.338 181.457 176.338 181.885ZM182.499 180.988L181.409 181.322C181.415 180.801 181.5 180.3 181.664 179.819C181.834 179.339 182.077 178.911 182.394 178.536C182.716 178.161 183.111 177.865 183.58 177.648C184.049 177.426 184.585 177.314 185.188 177.314C185.698 177.314 186.149 177.382 186.542 177.517C186.94 177.651 187.274 177.859 187.544 178.141C187.819 178.416 188.027 178.771 188.168 179.204C188.309 179.638 188.379 180.153 188.379 180.751V187H186.744V180.733C186.744 180.2 186.659 179.787 186.489 179.494C186.325 179.195 186.091 178.987 185.786 178.87C185.487 178.747 185.13 178.686 184.714 178.686C184.356 178.686 184.04 178.747 183.765 178.87C183.489 178.993 183.258 179.163 183.07 179.38C182.883 179.591 182.739 179.834 182.64 180.109C182.546 180.385 182.499 180.678 182.499 180.988ZM196.377 184.478C196.377 184.243 196.324 184.026 196.219 183.827C196.119 183.622 195.911 183.438 195.595 183.273C195.284 183.104 194.815 182.957 194.188 182.834C193.661 182.723 193.184 182.591 192.756 182.438C192.334 182.286 191.974 182.102 191.675 181.885C191.382 181.668 191.156 181.413 190.998 181.12C190.84 180.827 190.761 180.484 190.761 180.092C190.761 179.717 190.843 179.362 191.007 179.028C191.177 178.694 191.414 178.398 191.719 178.141C192.029 177.883 192.401 177.681 192.835 177.534C193.269 177.388 193.752 177.314 194.285 177.314C195.047 177.314 195.697 177.449 196.236 177.719C196.775 177.988 197.188 178.349 197.476 178.8C197.763 179.245 197.906 179.74 197.906 180.285H196.28C196.28 180.021 196.201 179.767 196.043 179.521C195.891 179.269 195.665 179.061 195.366 178.896C195.073 178.732 194.713 178.65 194.285 178.65C193.834 178.65 193.468 178.721 193.187 178.861C192.911 178.996 192.709 179.169 192.58 179.38C192.457 179.591 192.396 179.813 192.396 180.048C192.396 180.224 192.425 180.382 192.483 180.522C192.548 180.657 192.659 180.783 192.817 180.9C192.976 181.012 193.198 181.117 193.485 181.217C193.772 181.316 194.139 181.416 194.584 181.516C195.363 181.691 196.005 181.902 196.509 182.148C197.013 182.395 197.388 182.696 197.634 183.054C197.88 183.411 198.003 183.845 198.003 184.354C198.003 184.771 197.915 185.151 197.739 185.497C197.569 185.843 197.32 186.142 196.992 186.394C196.67 186.64 196.283 186.833 195.832 186.974C195.387 187.108 194.886 187.176 194.329 187.176C193.491 187.176 192.782 187.026 192.202 186.728C191.622 186.429 191.183 186.042 190.884 185.567C190.585 185.093 190.436 184.592 190.436 184.064H192.07C192.094 184.51 192.223 184.864 192.457 185.128C192.691 185.386 192.979 185.57 193.318 185.682C193.658 185.787 193.995 185.84 194.329 185.84C194.774 185.84 195.146 185.781 195.445 185.664C195.75 185.547 195.981 185.386 196.14 185.181C196.298 184.976 196.377 184.741 196.377 184.478Z" fill="black"/>
<path d="M155.508 102.133V115H153.882V104.163L150.604 105.358V103.891L155.253 102.133H155.508ZM168.322 107.582V109.533C168.322 110.582 168.229 111.467 168.041 112.188C167.854 112.908 167.584 113.488 167.232 113.928C166.881 114.367 166.456 114.687 165.958 114.886C165.466 115.079 164.909 115.176 164.288 115.176C163.796 115.176 163.342 115.114 162.926 114.991C162.51 114.868 162.135 114.672 161.801 114.402C161.473 114.127 161.191 113.77 160.957 113.33C160.723 112.891 160.544 112.357 160.421 111.73C160.298 111.104 160.236 110.371 160.236 109.533V107.582C160.236 106.533 160.33 105.654 160.518 104.945C160.711 104.236 160.983 103.668 161.335 103.24C161.687 102.807 162.108 102.496 162.601 102.309C163.099 102.121 163.655 102.027 164.271 102.027C164.769 102.027 165.226 102.089 165.642 102.212C166.063 102.329 166.438 102.52 166.767 102.783C167.095 103.041 167.373 103.387 167.602 103.82C167.836 104.248 168.015 104.772 168.138 105.394C168.261 106.015 168.322 106.744 168.322 107.582ZM166.688 109.797V107.31C166.688 106.735 166.652 106.231 166.582 105.798C166.518 105.358 166.421 104.983 166.292 104.673C166.163 104.362 165.999 104.11 165.8 103.917C165.606 103.724 165.381 103.583 165.123 103.495C164.871 103.401 164.587 103.354 164.271 103.354C163.884 103.354 163.541 103.428 163.242 103.574C162.943 103.715 162.691 103.94 162.486 104.251C162.287 104.562 162.135 104.969 162.029 105.473C161.924 105.977 161.871 106.589 161.871 107.31V109.797C161.871 110.371 161.903 110.878 161.968 111.317C162.038 111.757 162.141 112.138 162.275 112.46C162.41 112.776 162.574 113.037 162.768 113.242C162.961 113.447 163.184 113.6 163.436 113.699C163.693 113.793 163.978 113.84 164.288 113.84C164.687 113.84 165.035 113.764 165.334 113.611C165.633 113.459 165.882 113.222 166.081 112.899C166.286 112.571 166.438 112.152 166.538 111.643C166.638 111.127 166.688 110.512 166.688 109.797ZM176.672 107.38V115H175.037V105.49H176.584L176.672 107.38ZM176.338 109.885L175.582 109.858C175.588 109.208 175.673 108.607 175.837 108.057C176.001 107.5 176.244 107.017 176.566 106.606C176.889 106.196 177.29 105.88 177.771 105.657C178.251 105.429 178.808 105.314 179.44 105.314C179.886 105.314 180.296 105.379 180.671 105.508C181.046 105.631 181.371 105.827 181.646 106.097C181.922 106.366 182.136 106.712 182.288 107.134C182.44 107.556 182.517 108.065 182.517 108.663V115H180.891V108.742C180.891 108.244 180.806 107.846 180.636 107.547C180.472 107.248 180.237 107.031 179.933 106.896C179.628 106.756 179.271 106.686 178.86 106.686C178.38 106.686 177.979 106.771 177.656 106.94C177.334 107.11 177.076 107.345 176.883 107.644C176.689 107.942 176.549 108.285 176.461 108.672C176.379 109.053 176.338 109.457 176.338 109.885ZM182.499 108.988L181.409 109.322C181.415 108.801 181.5 108.3 181.664 107.819C181.834 107.339 182.077 106.911 182.394 106.536C182.716 106.161 183.111 105.865 183.58 105.648C184.049 105.426 184.585 105.314 185.188 105.314C185.698 105.314 186.149 105.382 186.542 105.517C186.94 105.651 187.274 105.859 187.544 106.141C187.819 106.416 188.027 106.771 188.168 107.204C188.309 107.638 188.379 108.153 188.379 108.751V115H186.744V108.733C186.744 108.2 186.659 107.787 186.489 107.494C186.325 107.195 186.091 106.987 185.786 106.87C185.487 106.747 185.13 106.686 184.714 106.686C184.356 106.686 184.04 106.747 183.765 106.87C183.489 106.993 183.258 107.163 183.07 107.38C182.883 107.591 182.739 107.834 182.64 108.109C182.546 108.385 182.499 108.678 182.499 108.988ZM196.377 112.478C196.377 112.243 196.324 112.026 196.219 111.827C196.119 111.622 195.911 111.438 195.595 111.273C195.284 111.104 194.815 110.957 194.188 110.834C193.661 110.723 193.184 110.591 192.756 110.438C192.334 110.286 191.974 110.102 191.675 109.885C191.382 109.668 191.156 109.413 190.998 109.12C190.84 108.827 190.761 108.484 190.761 108.092C190.761 107.717 190.843 107.362 191.007 107.028C191.177 106.694 191.414 106.398 191.719 106.141C192.029 105.883 192.401 105.681 192.835 105.534C193.269 105.388 193.752 105.314 194.285 105.314C195.047 105.314 195.697 105.449 196.236 105.719C196.775 105.988 197.188 106.349 197.476 106.8C197.763 107.245 197.906 107.74 197.906 108.285H196.28C196.28 108.021 196.201 107.767 196.043 107.521C195.891 107.269 195.665 107.061 195.366 106.896C195.073 106.732 194.713 106.65 194.285 106.65C193.834 106.65 193.468 106.721 193.187 106.861C192.911 106.996 192.709 107.169 192.58 107.38C192.457 107.591 192.396 107.813 192.396 108.048C192.396 108.224 192.425 108.382 192.483 108.522C192.548 108.657 192.659 108.783 192.817 108.9C192.976 109.012 193.198 109.117 193.485 109.217C193.772 109.316 194.139 109.416 194.584 109.516C195.363 109.691 196.005 109.902 196.509 110.148C197.013 110.395 197.388 110.696 197.634 111.054C197.88 111.411 198.003 111.845 198.003 112.354C198.003 112.771 197.915 113.151 197.739 113.497C197.569 113.843 197.32 114.142 196.992 114.394C196.67 114.64 196.283 114.833 195.832 114.974C195.387 115.108 194.886 115.176 194.329 115.176C193.491 115.176 192.782 115.026 192.202 114.728C191.622 114.429 191.183 114.042 190.884 113.567C190.585 113.093 190.436 112.592 190.436 112.064H192.07C192.094 112.51 192.223 112.864 192.457 113.128C192.691 113.386 192.979 113.57 193.318 113.682C193.658 113.787 193.995 113.84 194.329 113.84C194.774 113.84 195.146 113.781 195.445 113.664C195.75 113.547 195.981 113.386 196.14 113.181C196.298 112.976 196.377 112.741 196.377 112.478Z" fill="black"/>
<path d="M70.7188 57.4531V57.375C70.7188 56.2396 70.8464 55.2135 71.1016 54.2969C71.3568 53.375 71.6823 52.5677 72.0781 51.875C72.474 51.1823 72.8906 50.6094 73.3281 50.1562C73.7656 49.6979 74.1693 49.3672 74.5391 49.1641L74.8438 50.1172C74.5365 50.3516 74.224 50.6745 73.9062 51.0859C73.5938 51.4974 73.3047 52.0026 73.0391 52.6016C72.7786 53.2005 72.5677 53.8958 72.4062 54.6875C72.2448 55.4792 72.1641 56.3698 72.1641 57.3594V57.4688C72.1641 58.4583 72.2448 59.3516 72.4062 60.1484C72.5677 60.9401 72.7786 61.638 73.0391 62.2422C73.3047 62.8464 73.5938 63.3594 73.9062 63.7812C74.224 64.2083 74.5365 64.5469 74.8438 64.7969L74.5391 65.6719C74.1693 65.4688 73.7656 65.138 73.3281 64.6797C72.8906 64.2266 72.474 63.6536 72.0781 62.9609C71.6823 62.2734 71.3568 61.4688 71.1016 60.5469C70.8464 59.625 70.7188 58.5938 70.7188 57.4531ZM83.3438 58.3828H84.8438C84.7656 59.1016 84.5599 59.7448 84.2266 60.3125C83.8932 60.8802 83.4219 61.3307 82.8125 61.6641C82.2031 61.9922 81.4427 62.1562 80.5312 62.1562C79.8646 62.1562 79.2578 62.0312 78.7109 61.7812C78.1693 61.5312 77.7031 61.1771 77.3125 60.7188C76.9219 60.2552 76.6198 59.7005 76.4062 59.0547C76.1979 58.4036 76.0938 57.6797 76.0938 56.8828V55.75C76.0938 54.9531 76.1979 54.2318 76.4062 53.5859C76.6198 52.9349 76.9245 52.3776 77.3203 51.9141C77.7214 51.4505 78.2031 51.0938 78.7656 50.8438C79.3281 50.5938 79.9609 50.4688 80.6641 50.4688C81.5234 50.4688 82.25 50.6302 82.8438 50.9531C83.4375 51.276 83.8984 51.724 84.2266 52.2969C84.5599 52.8646 84.7656 53.5234 84.8438 54.2734H83.3438C83.2708 53.7422 83.1354 53.2865 82.9375 52.9062C82.7396 52.5208 82.4583 52.224 82.0938 52.0156C81.7292 51.8073 81.2526 51.7031 80.6641 51.7031C80.1589 51.7031 79.7135 51.7995 79.3281 51.9922C78.9479 52.1849 78.6276 52.4583 78.3672 52.8125C78.112 53.1667 77.9193 53.5911 77.7891 54.0859C77.6589 54.5807 77.5938 55.1302 77.5938 55.7344V56.8828C77.5938 57.4401 77.651 57.9635 77.7656 58.4531C77.8854 58.9427 78.0651 59.3724 78.3047 59.7422C78.5443 60.112 78.849 60.4036 79.2188 60.6172C79.5885 60.8255 80.026 60.9297 80.5312 60.9297C81.1719 60.9297 81.6823 60.8281 82.0625 60.625C82.4427 60.4219 82.7292 60.1302 82.9219 59.75C83.1198 59.3698 83.2604 58.9141 83.3438 58.3828ZM88.25 50V62H86.7969V50H88.25ZM92.1406 53.5469V62H90.6875V53.5469H92.1406ZM90.5781 51.3047C90.5781 51.0703 90.6484 50.8724 90.7891 50.7109C90.9349 50.5495 91.1484 50.4688 91.4297 50.4688C91.7057 50.4688 91.9167 50.5495 92.0625 50.7109C92.2135 50.8724 92.2891 51.0703 92.2891 51.3047C92.2891 51.5286 92.2135 51.7214 92.0625 51.8828C91.9167 52.0391 91.7057 52.1172 91.4297 52.1172C91.1484 52.1172 90.9349 52.0391 90.7891 51.8828C90.6484 51.7214 90.5781 51.5286 90.5781 51.3047ZM99.7812 65.25V55.1719L99.9062 53.5469H101.234V65.25H99.7812ZM94.1016 57.8672V57.7031C94.1016 57.0573 94.1771 56.4714 94.3281 55.9453C94.4792 55.4141 94.7005 54.9583 94.9922 54.5781C95.2839 54.1979 95.6354 53.9062 96.0469 53.7031C96.4635 53.4948 96.9375 53.3906 97.4688 53.3906C98 53.3906 98.4661 53.4844 98.8672 53.6719C99.2734 53.8542 99.6172 54.1224 99.8984 54.4766C100.185 54.8255 100.411 55.2474 100.578 55.7422C100.745 56.237 100.859 56.7969 100.922 57.4219V58.1406C100.865 58.7604 100.753 59.3177 100.586 59.8125C100.419 60.3073 100.193 60.7292 99.9062 61.0781C99.625 61.4271 99.2786 61.6953 98.8672 61.8828C98.4609 62.0651 97.9896 62.1562 97.4531 62.1562C96.9323 62.1562 96.4635 62.0495 96.0469 61.8359C95.6354 61.6224 95.2839 61.3229 94.9922 60.9375C94.7057 60.5521 94.4844 60.099 94.3281 59.5781C94.1771 59.0521 94.1016 58.4818 94.1016 57.8672ZM95.5547 57.7031V57.8672C95.5547 58.2891 95.599 58.6875 95.6875 59.0625C95.776 59.4323 95.9115 59.7604 96.0938 60.0469C96.2812 60.3333 96.5156 60.5599 96.7969 60.7266C97.0833 60.888 97.4219 60.9688 97.8125 60.9688C98.2917 60.9688 98.6901 60.8646 99.0078 60.6562C99.3307 60.4479 99.5885 60.1745 99.7812 59.8359C99.974 59.4922 100.122 59.125 100.227 58.7344V56.8516C100.169 56.5651 100.078 56.2865 99.9531 56.0156C99.8333 55.7448 99.6771 55.5026 99.4844 55.2891C99.2917 55.0703 99.0573 54.8984 98.7812 54.7734C98.5104 54.6432 98.1927 54.5781 97.8281 54.5781C97.4323 54.5781 97.0911 54.6615 96.8047 54.8281C96.5182 54.9948 96.2812 55.224 96.0938 55.5156C95.9115 55.8021 95.776 56.1328 95.6875 56.5078C95.599 56.8828 95.5547 57.2812 95.5547 57.7031ZM108.727 60.0469V53.5469H110.18V62H108.797L108.727 60.0469ZM109 58.2656L109.602 58.25C109.602 58.8125 109.542 59.3333 109.422 59.8125C109.307 60.2865 109.12 60.6979 108.859 61.0469C108.599 61.3958 108.258 61.6693 107.836 61.8672C107.414 62.0599 106.901 62.1562 106.297 62.1562C105.885 62.1562 105.508 62.0964 105.164 61.9766C104.826 61.8568 104.534 61.6719 104.289 61.4219C104.044 61.1719 103.854 60.8464 103.719 60.4453C103.589 60.0443 103.523 59.5625 103.523 59V53.5469H104.969V59.0156C104.969 59.3958 105.01 59.7109 105.094 59.9609C105.182 60.2057 105.299 60.401 105.445 60.5469C105.596 60.6875 105.763 60.7865 105.945 60.8438C106.133 60.901 106.326 60.9297 106.523 60.9297C107.138 60.9297 107.625 60.8125 107.984 60.5781C108.344 60.3385 108.602 60.0182 108.758 59.6172C108.919 59.2109 109 58.7604 109 58.2656ZM115.891 62.1562C115.302 62.1562 114.768 62.0573 114.289 61.8594C113.815 61.6562 113.406 61.3724 113.062 61.0078C112.724 60.6432 112.464 60.2109 112.281 59.7109C112.099 59.2109 112.008 58.6641 112.008 58.0703V57.7422C112.008 57.0547 112.109 56.4427 112.312 55.9062C112.516 55.3646 112.792 54.9062 113.141 54.5312C113.49 54.1562 113.885 53.8724 114.328 53.6797C114.771 53.487 115.229 53.3906 115.703 53.3906C116.307 53.3906 116.828 53.4948 117.266 53.7031C117.708 53.9115 118.07 54.2031 118.352 54.5781C118.633 54.9479 118.841 55.3854 118.977 55.8906C119.112 56.3906 119.18 56.9375 119.18 57.5312V58.1797H112.867V57H117.734V56.8906C117.714 56.5156 117.635 56.151 117.5 55.7969C117.37 55.4427 117.161 55.151 116.875 54.9219C116.589 54.6927 116.198 54.5781 115.703 54.5781C115.375 54.5781 115.073 54.6484 114.797 54.7891C114.521 54.9245 114.284 55.1276 114.086 55.3984C113.888 55.6693 113.734 56 113.625 56.3906C113.516 56.7812 113.461 57.2318 113.461 57.7422V58.0703C113.461 58.4714 113.516 58.849 113.625 59.2031C113.74 59.5521 113.904 59.8594 114.117 60.125C114.336 60.3906 114.599 60.599 114.906 60.75C115.219 60.901 115.573 60.9766 115.969 60.9766C116.479 60.9766 116.911 60.8724 117.266 60.6641C117.62 60.4557 117.93 60.1771 118.195 59.8281L119.07 60.5234C118.888 60.7995 118.656 61.0625 118.375 61.3125C118.094 61.5625 117.747 61.7656 117.336 61.9219C116.93 62.0781 116.448 62.1562 115.891 62.1562ZM126.281 55.1719V65.25H124.828V53.5469H126.156L126.281 55.1719ZM131.977 57.7031V57.8672C131.977 58.4818 131.904 59.0521 131.758 59.5781C131.612 60.099 131.398 60.5521 131.117 60.9375C130.841 61.3229 130.5 61.6224 130.094 61.8359C129.688 62.0495 129.221 62.1562 128.695 62.1562C128.159 62.1562 127.685 62.0677 127.273 61.8906C126.862 61.7135 126.513 61.4557 126.227 61.1172C125.94 60.7786 125.711 60.3724 125.539 59.8984C125.372 59.4245 125.258 58.8906 125.195 58.2969V57.4219C125.258 56.7969 125.375 56.237 125.547 55.7422C125.719 55.2474 125.945 54.8255 126.227 54.4766C126.513 54.1224 126.859 53.8542 127.266 53.6719C127.672 53.4844 128.141 53.3906 128.672 53.3906C129.203 53.3906 129.674 53.4948 130.086 53.7031C130.497 53.9062 130.844 54.1979 131.125 54.5781C131.406 54.9583 131.617 55.4141 131.758 55.9453C131.904 56.4714 131.977 57.0573 131.977 57.7031ZM130.523 57.8672V57.7031C130.523 57.2812 130.479 56.8854 130.391 56.5156C130.302 56.1406 130.164 55.8125 129.977 55.5312C129.794 55.2448 129.56 55.0208 129.273 54.8594C128.987 54.6927 128.646 54.6094 128.25 54.6094C127.885 54.6094 127.568 54.6719 127.297 54.7969C127.031 54.9219 126.805 55.0911 126.617 55.3047C126.43 55.513 126.276 55.7526 126.156 56.0234C126.042 56.2891 125.956 56.5651 125.898 56.8516V58.875C126.003 59.2396 126.148 59.5833 126.336 59.9062C126.523 60.224 126.773 60.4818 127.086 60.6797C127.398 60.8724 127.792 60.9688 128.266 60.9688C128.656 60.9688 128.992 60.888 129.273 60.7266C129.56 60.5599 129.794 60.3333 129.977 60.0469C130.164 59.7604 130.302 59.4323 130.391 59.0625C130.479 58.6875 130.523 58.2891 130.523 57.8672ZM138.805 60.5547V56.2031C138.805 55.8698 138.737 55.5807 138.602 55.3359C138.471 55.0859 138.273 54.8932 138.008 54.7578C137.742 54.6224 137.414 54.5547 137.023 54.5547C136.659 54.5547 136.339 54.6172 136.062 54.7422C135.792 54.8672 135.578 55.0312 135.422 55.2344C135.271 55.4375 135.195 55.6562 135.195 55.8906H133.75C133.75 55.5885 133.828 55.2891 133.984 54.9922C134.141 54.6953 134.365 54.4271 134.656 54.1875C134.953 53.9427 135.307 53.75 135.719 53.6094C136.135 53.4635 136.599 53.3906 137.109 53.3906C137.724 53.3906 138.266 53.4948 138.734 53.7031C139.208 53.9115 139.578 54.2266 139.844 54.6484C140.115 55.0651 140.25 55.5885 140.25 56.2188V60.1562C140.25 60.4375 140.273 60.737 140.32 61.0547C140.372 61.3724 140.448 61.6458 140.547 61.875V62H139.039C138.966 61.8333 138.909 61.612 138.867 61.3359C138.826 61.0547 138.805 60.7943 138.805 60.5547ZM139.055 56.875L139.07 57.8906H137.609C137.198 57.8906 136.831 57.9245 136.508 57.9922C136.185 58.0547 135.914 58.151 135.695 58.2812C135.477 58.4115 135.31 58.5755 135.195 58.7734C135.081 58.9661 135.023 59.1927 135.023 59.4531C135.023 59.7188 135.083 59.9609 135.203 60.1797C135.323 60.3984 135.503 60.5729 135.742 60.7031C135.987 60.8281 136.286 60.8906 136.641 60.8906C137.083 60.8906 137.474 60.7969 137.812 60.6094C138.151 60.4219 138.419 60.1927 138.617 59.9219C138.82 59.651 138.93 59.388 138.945 59.1328L139.562 59.8281C139.526 60.0469 139.427 60.2891 139.266 60.5547C139.104 60.8203 138.888 61.0755 138.617 61.3203C138.352 61.5599 138.034 61.7604 137.664 61.9219C137.299 62.0781 136.888 62.1562 136.43 62.1562C135.857 62.1562 135.354 62.0443 134.922 61.8203C134.495 61.5964 134.161 61.2969 133.922 60.9219C133.688 60.5417 133.57 60.1172 133.57 59.6484C133.57 59.1953 133.659 58.7969 133.836 58.4531C134.013 58.1042 134.268 57.8151 134.602 57.5859C134.935 57.3516 135.336 57.1745 135.805 57.0547C136.273 56.9349 136.797 56.875 137.375 56.875H139.055ZM143.969 54.875V62H142.523V53.5469H143.93L143.969 54.875ZM146.609 53.5L146.602 54.8438C146.482 54.8177 146.367 54.8021 146.258 54.7969C146.154 54.7865 146.034 54.7812 145.898 54.7812C145.565 54.7812 145.271 54.8333 145.016 54.9375C144.76 55.0417 144.544 55.1875 144.367 55.375C144.19 55.5625 144.049 55.7865 143.945 56.0469C143.846 56.3021 143.781 56.5833 143.75 56.8906L143.344 57.125C143.344 56.6146 143.393 56.1354 143.492 55.6875C143.596 55.2396 143.755 54.8438 143.969 54.5C144.182 54.151 144.453 53.8802 144.781 53.6875C145.115 53.4896 145.51 53.3906 145.969 53.3906C146.073 53.3906 146.193 53.4036 146.328 53.4297C146.464 53.4505 146.557 53.474 146.609 53.5ZM152.617 60.5547V56.2031C152.617 55.8698 152.549 55.5807 152.414 55.3359C152.284 55.0859 152.086 54.8932 151.82 54.7578C151.555 54.6224 151.227 54.5547 150.836 54.5547C150.471 54.5547 150.151 54.6172 149.875 54.7422C149.604 54.8672 149.391 55.0312 149.234 55.2344C149.083 55.4375 149.008 55.6562 149.008 55.8906H147.562C147.562 55.5885 147.641 55.2891 147.797 54.9922C147.953 54.6953 148.177 54.4271 148.469 54.1875C148.766 53.9427 149.12 53.75 149.531 53.6094C149.948 53.4635 150.411 53.3906 150.922 53.3906C151.536 53.3906 152.078 53.4948 152.547 53.7031C153.021 53.9115 153.391 54.2266 153.656 54.6484C153.927 55.0651 154.062 55.5885 154.062 56.2188V60.1562C154.062 60.4375 154.086 60.737 154.133 61.0547C154.185 61.3724 154.26 61.6458 154.359 61.875V62H152.852C152.779 61.8333 152.721 61.612 152.68 61.3359C152.638 61.0547 152.617 60.7943 152.617 60.5547ZM152.867 56.875L152.883 57.8906H151.422C151.01 57.8906 150.643 57.9245 150.32 57.9922C149.997 58.0547 149.727 58.151 149.508 58.2812C149.289 58.4115 149.122 58.5755 149.008 58.7734C148.893 58.9661 148.836 59.1927 148.836 59.4531C148.836 59.7188 148.896 59.9609 149.016 60.1797C149.135 60.3984 149.315 60.5729 149.555 60.7031C149.799 60.8281 150.099 60.8906 150.453 60.8906C150.896 60.8906 151.286 60.7969 151.625 60.6094C151.964 60.4219 152.232 60.1927 152.43 59.9219C152.633 59.651 152.742 59.388 152.758 59.1328L153.375 59.8281C153.339 60.0469 153.24 60.2891 153.078 60.5547C152.917 60.8203 152.701 61.0755 152.43 61.3203C152.164 61.5599 151.846 61.7604 151.477 61.9219C151.112 62.0781 150.701 62.1562 150.242 62.1562C149.669 62.1562 149.167 62.0443 148.734 61.8203C148.307 61.5964 147.974 61.2969 147.734 60.9219C147.5 60.5417 147.383 60.1172 147.383 59.6484C147.383 59.1953 147.471 58.7969 147.648 58.4531C147.826 58.1042 148.081 57.8151 148.414 57.5859C148.747 57.3516 149.148 57.1745 149.617 57.0547C150.086 56.9349 150.609 56.875 151.188 56.875H152.867ZM165.289 60.5547V56.2031C165.289 55.8698 165.221 55.5807 165.086 55.3359C164.956 55.0859 164.758 54.8932 164.492 54.7578C164.227 54.6224 163.898 54.5547 163.508 54.5547C163.143 54.5547 162.823 54.6172 162.547 54.7422C162.276 54.8672 162.062 55.0312 161.906 55.2344C161.755 55.4375 161.68 55.6562 161.68 55.8906H160.234C160.234 55.5885 160.312 55.2891 160.469 54.9922C160.625 54.6953 160.849 54.4271 161.141 54.1875C161.438 53.9427 161.792 53.75 162.203 53.6094C162.62 53.4635 163.083 53.3906 163.594 53.3906C164.208 53.3906 164.75 53.4948 165.219 53.7031C165.693 53.9115 166.062 54.2266 166.328 54.6484C166.599 55.0651 166.734 55.5885 166.734 56.2188V60.1562C166.734 60.4375 166.758 60.737 166.805 61.0547C166.857 61.3724 166.932 61.6458 167.031 61.875V62H165.523C165.451 61.8333 165.393 61.612 165.352 61.3359C165.31 61.0547 165.289 60.7943 165.289 60.5547ZM165.539 56.875L165.555 57.8906H164.094C163.682 57.8906 163.315 57.9245 162.992 57.9922C162.669 58.0547 162.398 58.151 162.18 58.2812C161.961 58.4115 161.794 58.5755 161.68 58.7734C161.565 58.9661 161.508 59.1927 161.508 59.4531C161.508 59.7188 161.568 59.9609 161.688 60.1797C161.807 60.3984 161.987 60.5729 162.227 60.7031C162.471 60.8281 162.771 60.8906 163.125 60.8906C163.568 60.8906 163.958 60.7969 164.297 60.6094C164.635 60.4219 164.904 60.1927 165.102 59.9219C165.305 59.651 165.414 59.388 165.43 59.1328L166.047 59.8281C166.01 60.0469 165.911 60.2891 165.75 60.5547C165.589 60.8203 165.372 61.0755 165.102 61.3203C164.836 61.5599 164.518 61.7604 164.148 61.9219C163.784 62.0781 163.372 62.1562 162.914 62.1562C162.341 62.1562 161.839 62.0443 161.406 61.8203C160.979 61.5964 160.646 61.2969 160.406 60.9219C160.172 60.5417 160.055 60.1172 160.055 59.6484C160.055 59.1953 160.143 58.7969 160.32 58.4531C160.497 58.1042 160.753 57.8151 161.086 57.5859C161.419 57.3516 161.82 57.1745 162.289 57.0547C162.758 56.9349 163.281 56.875 163.859 56.875H165.539ZM170.578 50V62H169.125V50H170.578ZM176.438 53.5469V54.6562H171.867V53.5469H176.438ZM173.414 51.4922H174.859V59.9062C174.859 60.1927 174.904 60.4089 174.992 60.5547C175.081 60.7005 175.195 60.7969 175.336 60.8438C175.477 60.8906 175.628 60.9141 175.789 60.9141C175.909 60.9141 176.034 60.9036 176.164 60.8828C176.299 60.8568 176.401 60.8359 176.469 60.8203L176.477 62C176.362 62.0365 176.211 62.0703 176.023 62.1016C175.841 62.138 175.62 62.1562 175.359 62.1562C175.005 62.1562 174.68 62.0859 174.383 61.9453C174.086 61.8047 173.849 61.5703 173.672 61.2422C173.5 60.9089 173.414 60.4609 173.414 59.8984V51.4922ZM181.641 62.1562C181.052 62.1562 180.518 62.0573 180.039 61.8594C179.565 61.6562 179.156 61.3724 178.812 61.0078C178.474 60.6432 178.214 60.2109 178.031 59.7109C177.849 59.2109 177.758 58.6641 177.758 58.0703V57.7422C177.758 57.0547 177.859 56.4427 178.062 55.9062C178.266 55.3646 178.542 54.9062 178.891 54.5312C179.24 54.1562 179.635 53.8724 180.078 53.6797C180.521 53.487 180.979 53.3906 181.453 53.3906C182.057 53.3906 182.578 53.4948 183.016 53.7031C183.458 53.9115 183.82 54.2031 184.102 54.5781C184.383 54.9479 184.591 55.3854 184.727 55.8906C184.862 56.3906 184.93 56.9375 184.93 57.5312V58.1797H178.617V57H183.484V56.8906C183.464 56.5156 183.385 56.151 183.25 55.7969C183.12 55.4427 182.911 55.151 182.625 54.9219C182.339 54.6927 181.948 54.5781 181.453 54.5781C181.125 54.5781 180.823 54.6484 180.547 54.7891C180.271 54.9245 180.034 55.1276 179.836 55.3984C179.638 55.6693 179.484 56 179.375 56.3906C179.266 56.7812 179.211 57.2318 179.211 57.7422V58.0703C179.211 58.4714 179.266 58.849 179.375 59.2031C179.49 59.5521 179.654 59.8594 179.867 60.125C180.086 60.3906 180.349 60.599 180.656 60.75C180.969 60.901 181.323 60.9766 181.719 60.9766C182.229 60.9766 182.661 60.8724 183.016 60.6641C183.37 60.4557 183.68 60.1771 183.945 59.8281L184.82 60.5234C184.638 60.7995 184.406 61.0625 184.125 61.3125C183.844 61.5625 183.497 61.7656 183.086 61.9219C182.68 62.0781 182.198 62.1562 181.641 62.1562ZM188.062 54.875V62H186.617V53.5469H188.023L188.062 54.875ZM190.703 53.5L190.695 54.8438C190.576 54.8177 190.461 54.8021 190.352 54.7969C190.247 54.7865 190.128 54.7812 189.992 54.7812C189.659 54.7812 189.365 54.8333 189.109 54.9375C188.854 55.0417 188.638 55.1875 188.461 55.375C188.284 55.5625 188.143 55.7865 188.039 56.0469C187.94 56.3021 187.875 56.5833 187.844 56.8906L187.438 57.125C187.438 56.6146 187.487 56.1354 187.586 55.6875C187.69 55.2396 187.849 54.8438 188.062 54.5C188.276 54.151 188.547 53.8802 188.875 53.6875C189.208 53.4896 189.604 53.3906 190.062 53.3906C190.167 53.3906 190.286 53.4036 190.422 53.4297C190.557 53.4505 190.651 53.474 190.703 53.5ZM196.711 60.5547V56.2031C196.711 55.8698 196.643 55.5807 196.508 55.3359C196.378 55.0859 196.18 54.8932 195.914 54.7578C195.648 54.6224 195.32 54.5547 194.93 54.5547C194.565 54.5547 194.245 54.6172 193.969 54.7422C193.698 54.8672 193.484 55.0312 193.328 55.2344C193.177 55.4375 193.102 55.6562 193.102 55.8906H191.656C191.656 55.5885 191.734 55.2891 191.891 54.9922C192.047 54.6953 192.271 54.4271 192.562 54.1875C192.859 53.9427 193.214 53.75 193.625 53.6094C194.042 53.4635 194.505 53.3906 195.016 53.3906C195.63 53.3906 196.172 53.4948 196.641 53.7031C197.115 53.9115 197.484 54.2266 197.75 54.6484C198.021 55.0651 198.156 55.5885 198.156 56.2188V60.1562C198.156 60.4375 198.18 60.737 198.227 61.0547C198.279 61.3724 198.354 61.6458 198.453 61.875V62H196.945C196.872 61.8333 196.815 61.612 196.773 61.3359C196.732 61.0547 196.711 60.7943 196.711 60.5547ZM196.961 56.875L196.977 57.8906H195.516C195.104 57.8906 194.737 57.9245 194.414 57.9922C194.091 58.0547 193.82 58.151 193.602 58.2812C193.383 58.4115 193.216 58.5755 193.102 58.7734C192.987 58.9661 192.93 59.1927 192.93 59.4531C192.93 59.7188 192.99 59.9609 193.109 60.1797C193.229 60.3984 193.409 60.5729 193.648 60.7031C193.893 60.8281 194.193 60.8906 194.547 60.8906C194.99 60.8906 195.38 60.7969 195.719 60.6094C196.057 60.4219 196.326 60.1927 196.523 59.9219C196.727 59.651 196.836 59.388 196.852 59.1328L197.469 59.8281C197.432 60.0469 197.333 60.2891 197.172 60.5547C197.01 60.8203 196.794 61.0755 196.523 61.3203C196.258 61.5599 195.94 61.7604 195.57 61.9219C195.206 62.0781 194.794 62.1562 194.336 62.1562C193.763 62.1562 193.26 62.0443 192.828 61.8203C192.401 61.5964 192.068 61.2969 191.828 60.9219C191.594 60.5417 191.477 60.1172 191.477 59.6484C191.477 59.1953 191.565 58.7969 191.742 58.4531C191.919 58.1042 192.174 57.8151 192.508 57.5859C192.841 57.3516 193.242 57.1745 193.711 57.0547C194.18 56.9349 194.703 56.875 195.281 56.875H196.961ZM201.875 54.875V62H200.43V53.5469H201.836L201.875 54.875ZM204.516 53.5L204.508 54.8438C204.388 54.8177 204.273 54.8021 204.164 54.7969C204.06 54.7865 203.94 54.7812 203.805 54.7812C203.471 54.7812 203.177 54.8333 202.922 54.9375C202.667 55.0417 202.451 55.1875 202.273 55.375C202.096 55.5625 201.956 55.7865 201.852 56.0469C201.753 56.3021 201.688 56.5833 201.656 56.8906L201.25 57.125C201.25 56.6146 201.299 56.1354 201.398 55.6875C201.503 55.2396 201.661 54.8438 201.875 54.5C202.089 54.151 202.359 53.8802 202.688 53.6875C203.021 53.4896 203.417 53.3906 203.875 53.3906C203.979 53.3906 204.099 53.4036 204.234 53.4297C204.37 53.4505 204.464 53.474 204.516 53.5ZM209.18 57.375V57.4531C209.18 58.5938 209.052 59.625 208.797 60.5469C208.542 61.4688 208.216 62.2734 207.82 62.9609C207.424 63.6536 207.008 64.2266 206.57 64.6797C206.133 65.138 205.729 65.4688 205.359 65.6719L205.055 64.7969C205.362 64.5625 205.672 64.2344 205.984 63.8125C206.297 63.3958 206.586 62.8802 206.852 62.2656C207.117 61.6562 207.331 60.9531 207.492 60.1562C207.654 59.3542 207.734 58.4583 207.734 57.4688V57.3594C207.734 56.3698 207.648 55.4766 207.477 54.6797C207.305 53.8776 207.081 53.1719 206.805 52.5625C206.534 51.9531 206.242 51.4401 205.93 51.0234C205.622 50.6016 205.331 50.276 205.055 50.0469L205.359 49.1641C205.729 49.3672 206.133 49.6979 206.57 50.1562C207.008 50.6094 207.424 51.1823 207.82 51.875C208.216 52.5677 208.542 53.375 208.797 54.2969C209.052 55.2135 209.18 56.2396 209.18 57.375Z" fill="black"/>
</g>
<defs>
<clipPath id="clip0_46_288">
<rect width="280" height="380" fill="white"/>
</clipPath>
</defs>
</svg>
